<svg xmlns="http://www.w3.org/2000/svg" viewBox="0 0 48 48" aria-hidden="true" focusable="false">
  <path fill="#EA4335" d="M24 9.5c3.54 0 6.72 1.22 9.24 3.22l6.9-6.9C35.94 1.7 30.37 0 24 0 14.62 0 6.44 5.4 2.56 13.26l8.62 6.69C13.04 13.42 18 9.5 24 9.5z"/>
  <path fill="#34A853" d="M46.5 24.5c0-1.64-.15-3.22-.42-4.74H24v9.48h12.62c-.54 2.9-2.17 5.36-4.6 7L40.54 42c3.94-3.63 5.96-8.96 5.96-14.5z"/>
  <path fill="#FBBC05" d="M11.18 28.04c-.5-1.5-.79-3.09-.79-4.74 0-1.64.29-3.23.79-4.74L2.56 13.26C1.01 16.43 0 20.07 0 24s1.01 7.57 2.56 10.74l8.62-6.7z"/>
  <path fill="#4285F4" d="M24 48c6.37 0 11.74-2.1 15.65-5.7l-7.53-6.26c-2.09 1.4-4.78 2.23-8.12 2.23-6.96 0-12.87-4.69-14.99-11.1l-8.62 6.7C6.44 42.6 14.62 48 24 48z"/>
</svg>
